<svg width="24" height="18" viewBox="0 0 24 18" fill="none" xmlns="http://www.w3.org/2000/svg">
<path d="M10.2 5.09782H14.4V0.812073C14.4 0.692908 14.4341 0.57634 14.4981 0.476664C14.5621 0.376988 14.6532 0.298537 14.7603 0.250931C14.8673 0.203325 14.9857 0.188633 15.1008 0.208658C15.2159 0.228682 15.3228 0.282552 15.4084 0.363662L23.8083 8.32291C23.8688 8.38019 23.917 8.44958 23.95 8.52675C23.983 8.60392 24 8.68719 24 8.77138C24 8.85556 23.983 8.93884 23.95 9.01601C23.917 9.09317 23.8688 9.16257 23.8083 9.21985L15.4084 17.1791C15.3228 17.2602 15.2159 17.3141 15.1008 17.3341C14.9856 17.3541 14.8673 17.3394 14.7602 17.2918C14.6532 17.2442 14.562 17.1657 14.4981 17.066C14.4341 16.9663 14.4 16.8497 14.4 16.7306V12.4448H11.4C6.3662 12.4448 3.18927 13.8714 1.09923 17.0702C1.04444 17.154 0.970203 17.2228 0.883115 17.2704C0.796026 17.3179 0.698779 17.3428 0.600002 17.3428C0.541044 17.3429 0.4824 17.3341 0.426002 17.3165C0.302781 17.2784 0.194837 17.2009 0.118124 17.0954C0.0414116 16.9898 1.40219e-07 16.8619 3.1472e-06 16.7306C3.1472e-06 11.3644 2.67129 5.09782 10.2 5.09782ZM11.4 11.2203H15C15.0788 11.2203 15.1568 11.2361 15.2296 11.2668C15.3024 11.2976 15.3686 11.3427 15.4243 11.3995C15.4801 11.4564 15.5243 11.5239 15.5544 11.5982C15.5845 11.6725 15.6 11.7522 15.6 11.8326V15.3267L22.518 8.77132L15.6 2.21596V5.71007C15.6 5.79048 15.5845 5.87012 15.5544 5.94443C15.5243 6.01873 15.4801 6.08624 15.4243 6.1431C15.3686 6.19997 15.3025 6.24506 15.2296 6.27581C15.1568 6.30656 15.0788 6.32237 15 6.32232H10.2C4.42967 6.32232 1.89315 10.553 1.32657 14.8113C3.61463 12.3414 6.80684 11.2203 11.4 11.2203Z" fill="#ADB4BF"/>
</svg>
