<svg width="16" height="16" viewBox="0 0 16 16" fill="none" xmlns="http://www.w3.org/2000/svg">
<path d="M8 0C3.584 0 0 3.584 0 8.00001C0 12.416 3.584 16 8 16C12.416 16 16 12.416 16 8.00001C16 3.584 12.416 0 8 0ZM8 14.864C4.224 14.864 1.136 11.776 1.136 8.00001C1.136 4.224 4.224 1.136 8 1.136C11.776 1.136 14.864 4.208 14.864 8.00001C14.864 11.776 11.776 14.864 8 14.864Z" fill="#ADB4BF"/>
<path d="M7.632 2.8479C7.312 2.8479 7.056 3.1039 7.056 3.4239V8.5599C7.072 8.8799 7.328 9.1359 7.648 9.1359H11.12C11.44 9.1359 11.696 8.8799 11.696 8.5599C11.696 8.2399 11.44 7.9839 11.12 7.9839H8.192V3.4079C8.192 3.0879 7.952 2.8479 7.632 2.8479Z" fill="#ADB4BF"/>
</svg>
