<svg width="10" height="13" viewBox="0 0 10 13" fill="none" xmlns="http://www.w3.org/2000/svg">
<path d="M3.744 8.896H7.272C7.404 8.896 7.506 8.944 7.578 9.04C7.662 9.124 7.704 9.238 7.704 9.382C7.704 9.514 7.662 9.628 7.578 9.724C7.506 9.808 7.404 9.85 7.272 9.85H3.744V11.83C3.744 12.25 3.654 12.55 3.474 12.73C3.294 12.91 3.012 13 2.628 13C2.352 13 2.142 12.928 1.998 12.784C1.866 12.64 1.8 12.412 1.8 12.1V9.85H0.864C0.576 9.85 0.432 9.694 0.432 9.382C0.432 9.058 0.576 8.896 0.864 8.896H1.8V8.05H0.864C0.576 8.05 0.432 7.894 0.432 7.582C0.432 7.258 0.576 7.096 0.864 7.096H1.8V1.138C1.8 0.813999 1.86 0.585999 1.98 0.454C2.1 0.309999 2.304 0.237999 2.592 0.237999H5.058C5.802 0.237999 6.516 0.309999 7.2 0.454C7.896 0.597999 8.526 0.945999 9.09 1.498C9.654 2.038 9.936 2.86 9.936 3.964C9.936 4.732 9.756 5.428 9.396 6.052C9.036 6.664 8.49 7.15 7.758 7.51C7.038 7.87 6.144 8.05 5.076 8.05H3.744V8.896ZM3.744 7.096H5.058C5.958 7.096 6.654 6.844 7.146 6.34C7.65 5.824 7.902 5.032 7.902 3.964C7.902 3.076 7.68 2.392 7.236 1.912C6.804 1.432 6.078 1.192 5.058 1.192H3.744V7.096Z" fill="#333E50"/>
</svg>
